<svg xmlns="http://www.w3.org/2000/svg" width="1100" height="260" viewBox="0 0 1100 260"><defs><marker id="a" markerWidth="10" markerHeight="10" refX="9" refY="3" orient="auto"><path d="M0,0 L0,6 L9,3 z" fill="#52616B"/></marker><filter id="sh"><feDropShadow dx="0" dy="2" stdDeviation="2" flood-opacity=".16"/></filter></defs><rect width="100%" height="100%" rx="18" fill="#F8FBFC"/><text x="550" y="38" text-anchor="middle" font-family="Arial" font-size="24" font-weight="700" fill="#17324D">PWA Loading</text><line x1="134" y1="140" x2="342" y2="140" stroke="#52616B" stroke-width="3" marker-end="url(#a)"/><line x1="342" y1="140" x2="550" y2="140" stroke="#52616B" stroke-width="3" marker-end="url(#a)"/><line x1="550" y1="140" x2="758" y2="140" stroke="#52616B" stroke-width="3" marker-end="url(#a)"/><line x1="758" y1="140" x2="966" y2="140" stroke="#52616B" stroke-width="3" marker-end="url(#a)"/><rect x="40" y="95" width="188" height="90" rx="14" fill="#D9F2EF" stroke="#176B87" stroke-width="2" filter="url(#sh)"/><text x="134" y="146" text-anchor="middle" font-family="Arial" font-size="15" font-weight="700" fill="#17324D">Browser / installed app</text><rect x="248" y="95" width="188" height="90" rx="14" fill="#DDECF8" stroke="#176B87" stroke-width="2" filter="url(#sh)"/><text x="342" y="146" text-anchor="middle" font-family="Arial" font-size="15" font-weight="700" fill="#17324D">Service Worker</text><rect x="456" y="95" width="188" height="90" rx="14" fill="#FFF0CF" stroke="#176B87" stroke-width="2" filter="url(#sh)"/><text x="550" y="146" text-anchor="middle" font-family="Arial" font-size="15" font-weight="700" fill="#17324D">App-shell cache</text><rect x="664" y="95" width="188" height="90" rx="14" fill="#EAF6F6" stroke="#176B87" stroke-width="2" filter="url(#sh)"/><text x="758" y="146" text-anchor="middle" font-family="Arial" font-size="15" font-weight="700" fill="#17324D">Static UI loads</text><rect x="872" y="95" width="188" height="90" rx="14" fill="#F2E9FA" stroke="#176B87" stroke-width="2" filter="url(#sh)"/><text x="966" y="146" text-anchor="middle" font-family="Arial" font-size="15" font-weight="700" fill="#17324D">Network → Supabase</text></svg>