<svg xmlns="http://www.w3.org/2000/svg" width="1100" height="590" viewBox="0 0 1100 590"><defs><marker id="a" markerWidth="10" markerHeight="10" refX="9" refY="3" orient="auto"><path d="M0,0 L0,6 L9,3 z" fill="#52616B"/></marker><filter id="sh"><feDropShadow dx="0" dy="2" stdDeviation="2" flood-opacity=".16"/></filter></defs><rect width="100%" height="100%" rx="18" fill="#F8FBFC"/><text x="550" y="38" text-anchor="middle" font-family="Arial" font-size="24" font-weight="700" fill="#17324D">DFD Level 0 — Major Processes &amp; Data Stores</text><line x1="100" y1="120" x2="370" y2="107.5" stroke="#52616B" stroke-width="3" marker-end="url(#a)"/><line x1="100" y1="120" x2="370" y2="267.5" stroke="#52616B" stroke-width="3" marker-end="url(#a)"/><line x1="100" y1="120" x2="370" y2="427.5" stroke="#52616B" stroke-width="3" marker-end="url(#a)"/><line x1="100" y1="420" x2="370" y2="267.5" stroke="#52616B" stroke-width="3" marker-end="url(#a)"/><line x1="100" y1="420" x2="370" y2="427.5" stroke="#52616B" stroke-width="3" marker-end="url(#a)"/><line x1="1000" y1="120" x2="720" y2="107.5" stroke="#52616B" stroke-width="3" marker-end="url(#a)"/><line x1="370" y1="107.5" x2="550" y2="537.5" stroke="#52616B" stroke-width="3" marker-end="url(#a)"/><line x1="370" y1="267.5" x2="550" y2="537.5" stroke="#52616B" stroke-width="3" marker-end="url(#a)"/><line x1="370" y1="427.5" x2="550" y2="537.5" stroke="#52616B" stroke-width="3" marker-end="url(#a)"/><line x1="720" y1="107.5" x2="550" y2="537.5" stroke="#52616B" stroke-width="3" marker-end="url(#a)"/><line x1="720" y1="267.5" x2="550" y2="537.5" stroke="#52616B" stroke-width="3" marker-end="url(#a)"/><line x1="720" y1="427.5" x2="550" y2="537.5" stroke="#52616B" stroke-width="3" marker-end="url(#a)"/><line x1="370" y1="427.5" x2="720" y2="427.5" stroke="#52616B" stroke-width="3" marker-end="url(#a)"/><line x1="720" y1="427.5" x2="100" y2="120" stroke="#52616B" stroke-width="3" marker-end="url(#a)"/><line x1="720" y1="427.5" x2="100" y2="420" stroke="#52616B" stroke-width="3" marker-end="url(#a)"/><rect x="20" y="80" width="160" height="80" rx="14" fill="#D9F2EF" stroke="#176B87" stroke-width="2" filter="url(#sh)"/><text x="100" y="126" text-anchor="middle" font-family="Arial" font-size="16" font-weight="700" fill="#17324D">CUSTOMER</text><rect x="20" y="380" width="160" height="80" rx="14" fill="#DDECF8" stroke="#176B87" stroke-width="2" filter="url(#sh)"/><text x="100" y="426" text-anchor="middle" font-family="Arial" font-size="16" font-weight="700" fill="#17324D">OWNER</text><rect x="920" y="80" width="160" height="80" rx="14" fill="#F6DFE1" stroke="#176B87" stroke-width="2" filter="url(#sh)"/><text x="1000" y="126" text-anchor="middle" font-family="Arial" font-size="16" font-weight="700" fill="#17324D">ADMIN</text><rect x="260" y="60" width="220" height="95" rx="14" fill="#EAF6F6" stroke="#176B87" stroke-width="2" filter="url(#sh)"/><text x="370" y="103.5" text-anchor="middle" font-family="Arial" font-size="16" font-weight="700" fill="#17324D">1.0 ACCOUNT</text><text x="370" y="123.5" text-anchor="middle" font-family="Arial" font-size="16" font-weight="400" fill="#17324D">&amp; ACCESS</text><rect x="260" y="220" width="220" height="95" rx="14" fill="#EAF6F6" stroke="#176B87" stroke-width="2" filter="url(#sh)"/><text x="370" y="263.5" text-anchor="middle" font-family="Arial" font-size="16" font-weight="700" fill="#17324D">2.0 SHOP &amp;</text><text x="370" y="283.5" text-anchor="middle" font-family="Arial" font-size="16" font-weight="400" fill="#17324D">MENU</text><rect x="260" y="380" width="220" height="95" rx="14" fill="#EAF6F6" stroke="#176B87" stroke-width="2" filter="url(#sh)"/><text x="370" y="423.5" text-anchor="middle" font-family="Arial" font-size="16" font-weight="700" fill="#17324D">3.0 ORDER</text><text x="370" y="443.5" text-anchor="middle" font-family="Arial" font-size="16" font-weight="400" fill="#17324D">PROCESSING</text><rect x="610" y="60" width="220" height="95" rx="14" fill="#EAF6F6" stroke="#176B87" stroke-width="2" filter="url(#sh)"/><text x="720" y="103.5" text-anchor="middle" font-family="Arial" font-size="16" font-weight="700" fill="#17324D">4.0 ADMIN</text><text x="720" y="123.5" text-anchor="middle" font-family="Arial" font-size="16" font-weight="400" fill="#17324D">APPROVAL</text><rect x="610" y="220" width="220" height="95" rx="14" fill="#EAF6F6" stroke="#176B87" stroke-width="2" filter="url(#sh)"/><text x="720" y="263.5" text-anchor="middle" font-family="Arial" font-size="16" font-weight="700" fill="#17324D">5.0 PAYMENT</text><text x="720" y="283.5" text-anchor="middle" font-family="Arial" font-size="16" font-weight="400" fill="#17324D">PROOF</text><rect x="610" y="380" width="220" height="95" rx="14" fill="#EAF6F6" stroke="#176B87" stroke-width="2" filter="url(#sh)"/><text x="720" y="423.5" text-anchor="middle" font-family="Arial" font-size="16" font-weight="700" fill="#17324D">6.0 UPDATES &amp;</text><text x="720" y="443.5" text-anchor="middle" font-family="Arial" font-size="16" font-weight="400" fill="#17324D">NOTIFICATIONS</text><rect x="410" y="505" width="280" height="65" rx="14" fill="#FFF0CF" stroke="#176B87" stroke-width="2" filter="url(#sh)"/><text x="550" y="533.5" text-anchor="middle" font-family="Arial" font-size="16" font-weight="700" fill="#17324D">DATA STORES</text><text x="550" y="553.5" text-anchor="middle" font-family="Arial" font-size="16" font-weight="400" fill="#17324D">DB • Storage • Auth</text></svg>